<?xml version="1.0" encoding="UTF-8" standalone="no"?>
<!-- Created with Inkscape (http://www.inkscape.org/) -->

<svg
   xmlns:dc="http://purl.org/dc/elements/1.1/"
   xmlns:cc="http://creativecommons.org/ns#"
   xmlns:rdf="http://www.w3.org/1999/02/22-rdf-syntax-ns#"
   xmlns:svg="http://www.w3.org/2000/svg"
   xmlns="http://www.w3.org/2000/svg"
   xmlns:xlink="http://www.w3.org/1999/xlink"
   xmlns:sodipodi="http://sodipodi.sourceforge.net/DTD/sodipodi-0.dtd"
   xmlns:inkscape="http://www.inkscape.org/namespaces/inkscape"
   width="64px"
   height="64px"
   id="svg2995"
   version="1.1"
   inkscape:version="0.48.4 r9939"
   inkscape:export-filename="/home/pin/Projects/freescore/Code/freescore-js-web/src/main/app/images/I!_new.png"
   inkscape:export-xdpi="67.387184"
   inkscape:export-ydpi="67.387184"
   sodipodi:docname="I!.svg">
  <defs
     id="defs2997">
    <linearGradient
       inkscape:collect="always"
       id="linearGradient3840">
      <stop
         style="stop-color:#008080;stop-opacity:1;"
         offset="0"
         id="stop3842" />
      <stop
         style="stop-color:#008080;stop-opacity:0;"
         offset="1"
         id="stop3844" />
    </linearGradient>
    <linearGradient
       inkscape:collect="always"
       id="linearGradient3824">
      <stop
         style="stop-color:#008080;stop-opacity:1;"
         offset="0"
         id="stop3826" />
      <stop
         style="stop-color:#008080;stop-opacity:0;"
         offset="1"
         id="stop3828" />
    </linearGradient>
    <linearGradient
       inkscape:collect="always"
       xlink:href="#linearGradient3824"
       id="linearGradient3830"
       x1="36.145651"
       y1="55.100091"
       x2="49.782015"
       y2="55.100091"
       gradientUnits="userSpaceOnUse" />
    <linearGradient
       inkscape:collect="always"
       xlink:href="#linearGradient3840"
       id="linearGradient3846"
       x1="36.32747"
       y1="55.10009"
       x2="49.600197"
       y2="55.10009"
       gradientUnits="userSpaceOnUse" />
  </defs>
  <sodipodi:namedview
     id="base"
     pagecolor="#ffffff"
     bordercolor="#666666"
     borderopacity="1.0"
     inkscape:pageopacity="0.0"
     inkscape:pageshadow="2"
     inkscape:zoom="5.5"
     inkscape:cx="6.0547422"
     inkscape:cy="34.063546"
     inkscape:current-layer="layer1"
     showgrid="true"
     inkscape:document-units="px"
     inkscape:grid-bbox="true"
     showguides="false"
     inkscape:window-width="1600"
     inkscape:window-height="856"
     inkscape:window-x="0"
     inkscape:window-y="25"
     inkscape:window-maximized="1">
    <inkscape:grid
       type="xygrid"
       id="grid3003" />
  </sodipodi:namedview>
  <metadata
     id="metadata3000">
    <rdf:RDF>
      <cc:Work
         rdf:about="">
        <dc:format>image/svg+xml</dc:format>
        <dc:type
           rdf:resource="http://purl.org/dc/dcmitype/StillImage" />
        <dc:title></dc:title>
      </cc:Work>
    </rdf:RDF>
  </metadata>
  <g
     id="layer1"
     inkscape:label="Layer 1"
     inkscape:groupmode="layer">
    <rect
       style="fill:#008080;fill-opacity:1;stroke:#407b8c;stroke-opacity:1"
       id="rect3005"
       width="15"
       height="40"
       x="15.363636"
       y="19.90909"
       inkscape:export-filename="/home/pin/Projects/freescore/Code/freescore-js-web/src/main/app/images/I!_new.png"
       inkscape:export-xdpi="67.387184"
       inkscape:export-ydpi="67.387184" />
    <rect
       style="fill:#008080;fill-opacity:1;stroke:#407b8c;stroke-opacity:1"
       id="rect3010"
       width="15"
       height="40"
       x="35"
       y="5"
       inkscape:export-filename="/home/pin/Projects/freescore/Code/freescore-js-web/src/main/app/images/I!_new.png"
       inkscape:export-xdpi="67.387184"
       inkscape:export-ydpi="67.387184" />
    <rect
       style="fill:#008080;fill-opacity:1;stroke:#407b8c;stroke-opacity:1"
       id="rect3012"
       width="15"
       height="10"
       x="15.545455"
       y="5.09091"
       inkscape:export-filename="/home/pin/Projects/freescore/Code/freescore-js-web/src/main/app/images/I!_new.png"
       inkscape:export-xdpi="67.387184"
       inkscape:export-ydpi="67.387184" />
    <rect
       style="fill:#008080;fill-opacity:1;stroke:#407b8c;stroke-opacity:1"
       id="rect3012-7"
       width="15"
       height="10"
       x="35.363636"
       y="50.090908"
       inkscape:export-filename="/home/pin/Projects/freescore/Code/freescore-js-web/src/main/app/images/I!_new.png"
       inkscape:export-xdpi="67.387184"
       inkscape:export-ydpi="67.387184" />
    <path
       style="fill:#008080;fill-opacity:1;stroke:#407b8c;stroke-width:0.18181818999999999;stroke-opacity:1"
       d="m 15.981818,39.909627 0,-19.363636 6.909091,0 6.909091,0 0,19.363636 0,19.363637 -6.909091,0 -6.909091,0 0,-19.363637 z"
       id="path3034"
       inkscape:connector-curvature="0"
       inkscape:export-filename="/home/pin/Projects/freescore/Code/freescore-js-web/src/main/app/images/I!_new.png"
       inkscape:export-xdpi="67.387184"
       inkscape:export-ydpi="67.387184" />
    <path
       style="fill:#008080;fill-opacity:1;stroke:#407b8c;stroke-width:0.18181818999999999;stroke-opacity:1"
       d="m 16.163636,39.909627 0,-19.181818 6.727273,0 6.727273,0 0,19.181818 0,19.181818 -6.727273,0 -6.727273,0 0,-19.181818 z"
       id="path3036"
       inkscape:connector-curvature="0"
       inkscape:export-filename="/home/pin/Projects/freescore/Code/freescore-js-web/src/main/app/images/I!_new.png"
       inkscape:export-xdpi="67.387184"
       inkscape:export-ydpi="67.387184" />
    <path
       style="fill:#008080;fill-opacity:1;stroke:#407b8c;stroke-width:0.18181818999999999;stroke-opacity:1"
       d="m 16.163636,10.091445 0,-4.4545451 6.909091,0 6.909091,0 0,4.4545451 0,4.454546 -6.909091,0 -6.909091,0 0,-4.454546 z"
       id="path3038"
       inkscape:connector-curvature="0"
       inkscape:export-filename="/home/pin/Projects/freescore/Code/freescore-js-web/src/main/app/images/I!_new.png"
       inkscape:export-xdpi="67.387184"
       inkscape:export-ydpi="67.387184" />
    <path
       style="fill:#008080;fill-opacity:1;stroke:#407b8c;stroke-width:0.18181818999999999;stroke-opacity:1"
       d="m 35.618182,25.000536 0,-19.3636361 6.909091,0 6.909091,0 0,19.3636361 0,19.363637 -6.909091,0 -6.909091,0 0,-19.363637 z"
       id="path3040"
       inkscape:connector-curvature="0"
       inkscape:export-filename="/home/pin/Projects/freescore/Code/freescore-js-web/src/main/app/images/I!_new.png"
       inkscape:export-xdpi="67.387184"
       inkscape:export-ydpi="67.387184" />
    <path
       style="fill:#008080;fill-opacity:1;stroke:#407b8c;stroke-width:0.18181818999999999;stroke-opacity:1"
       d="m 35.981818,55.091445 0,-4.363636 6.909091,0 6.909091,0 0,4.363636 0,4.363637 -6.909091,0 -6.909091,0 0,-4.363637 z"
       id="path3042"
       inkscape:connector-curvature="0"
       inkscape:export-xdpi="67.387184"
       inkscape:export-ydpi="67.387184"
       inkscape:export-filename="/home/pin/Projects/freescore/Code/freescore-js-web/src/main/app/images/I!_new.png" />
    <path
       style="fill:#008080;fill-opacity:1;stroke:#407b8c;stroke-width:0.18181818999999999;stroke-opacity:1"
       d="m 16.418379,39.918272 0,-19 6.545454,0 6.545455,0 0,19 0,19 -6.545455,0 -6.545454,0 0,-19 z"
       id="path3812"
       inkscape:connector-curvature="0" />
    <path
       style="fill:#008080;fill-opacity:1;stroke:#407b8c;stroke-width:0.18181819;stroke-opacity:1"
       d="m 16.600197,39.918272 0,-18.818182 6.363636,0 6.363636,0 0,18.818182 0,18.818182 -6.363636,0 -6.363636,0 0,-18.818182 z"
       id="path3814"
       inkscape:connector-curvature="0" />
    <path
       style="fill:#008080;fill-opacity:1;stroke:#407b8c;stroke-width:0.18181819;stroke-opacity:1"
       d="m 16.782015,39.918272 0,-18.636363 6.181818,0 6.181818,0 0,18.636363 0,18.636364 -6.181818,0 -6.181818,0 0,-18.636364 z"
       id="path3816"
       inkscape:connector-curvature="0" />
    <path
       style="fill:#008080;fill-opacity:1;stroke:#407b8c;stroke-width:0.18181819;stroke-opacity:1"
       d="m 16.418379,10.10009 0,-4.2727269 6.727272,0 6.727273,0 0,4.2727269 0,4.272728 -6.727273,0 -6.727272,0 0,-4.272728 z"
       id="path3818"
       inkscape:connector-curvature="0" />
    <path
       style="fill:#008080;fill-opacity:1;stroke:#407b8c;stroke-width:0.18181819;stroke-opacity:1"
       d="m 35.872924,25.009181 0,-19.1818179 6.727273,0 6.727272,0 0,19.1818179 0,19.181818 -6.727272,0 -6.727273,0 0,-19.181818 z"
       id="path3820"
       inkscape:connector-curvature="0" />
    <path
       style="fill:url(#linearGradient3830);fill-opacity:1;stroke:#407b8c;stroke-width:0.18181818999999999;stroke-opacity:1"
       d="m 36.23656,55.10009 0,-4.181818 6.727273,0 6.727273,0 0,4.181818 0,4.181819 -6.727273,0 -6.727273,0 0,-4.181819 z"
       id="path3822"
       inkscape:connector-curvature="0" />
    <path
       style="fill:#008080;fill-opacity:1;stroke:#407b8c;stroke-width:0.18181819;stroke-opacity:1"
       d="m 36.054742,25.009181 0,-18.9999997 6.545455,0 6.545454,0 0,18.9999997 0,19 -6.545454,0 -6.545455,0 0,-19 z"
       id="path3832"
       inkscape:connector-curvature="0" />
    <path
       style="fill:#008080;fill-opacity:1;stroke:#407b8c;stroke-width:0.18181819;stroke-opacity:1"
       d="m 16.963833,39.918272 0,-18.454545 6,0 6,0 0,18.454545 0,18.454546 -6,0 -6,0 0,-18.454546 z"
       id="path3834"
       inkscape:connector-curvature="0" />
    <path
       style="fill:#008080;fill-opacity:1;stroke:#407b8c;stroke-width:0.18181819;stroke-opacity:1"
       d="m 16.600197,10.10009 0,-4.0909087 6.545454,0 6.545455,0 0,4.0909087 0,4.090909 -6.545455,0 -6.545454,0 0,-4.090909 z"
       id="path3836"
       inkscape:connector-curvature="0" />
    <path
       style="fill:url(#linearGradient3846);fill-opacity:1;stroke:#407b8c;stroke-width:0.18181818999999999;stroke-opacity:1"
       d="m 36.418379,55.10009 0,-4 6.545454,0 6.545455,0 0,4 0,4 -6.545455,0 -6.545454,0 0,-4 z"
       id="path3838"
       inkscape:connector-curvature="0" />
    <path
       style="fill:#4196be;fill-opacity:0.98469388;stroke:#407b8c;stroke-width:0.18181818999999999;stroke-opacity:1"
       d="m 17.145651,39.918272 0,-18.272727 5.818182,0 5.818182,0 0,18.272727 0,18.272727 -5.818182,0 -5.818182,0 0,-18.272727 z"
       id="path3848"
       inkscape:connector-curvature="0" />
    <path
       style="fill:#4196be;fill-opacity:0.98469388;stroke:#407b8c;stroke-width:0.18181819;stroke-opacity:1"
       d="m 16.782015,10.10009 0,-3.9090905 6.363636,0 6.363637,0 0,3.9090905 0,3.909091 -6.363637,0 -6.363636,0 0,-3.909091 z"
       id="path3850"
       inkscape:connector-curvature="0" />
    <path
       style="fill:#4196be;fill-opacity:0.98469388;stroke:#407b8c;stroke-width:0.18181819;stroke-opacity:1"
       d="m 36.23656,25.009181 0,-18.8181815 6.363637,0 6.363636,0 0,18.8181815 0,18.818182 -6.363636,0 -6.363637,0 0,-18.818182 z"
       id="path3852"
       inkscape:connector-curvature="0" />
    <path
       style="fill:#4196be;fill-opacity:0.98469388;stroke:#407b8c;stroke-width:0.18181819;stroke-opacity:1"
       d="m 36.600197,55.10009 0,-3.818181 6.363636,0 6.363636,0 0,3.818181 0,3.818182 -6.363636,0 -6.363636,0 0,-3.818182 z"
       id="path3854"
       inkscape:connector-curvature="0" />
  </g>
</svg>
